<?xml version="1.0" encoding="utf-8"?>
<!-- Generator: Adobe Illustrator 25.0.1, SVG Export Plug-In . SVG Version: 6.00 Build 0)  -->
<svg version="1.1" id="Layer_1" xmlns="http://www.w3.org/2000/svg" xmlns:xlink="http://www.w3.org/1999/xlink" x="0px" y="0px"
	 viewBox="0 0 113.1 142.4" style="enable-background:new 0 0 113.1 142.4;" xml:space="preserve">
<style type="text/css">
	.st0{fill:#0a63b1;}
</style>
<g>
	<path class="st0" d="M85.5,79.7v47.5l0.3-0.1c12.2-6.4,19.9-19,19.9-32.8V79.7H85.5z"/>
	<path class="st0" d="M7.6,94.3c0,2.1,0.2,4.1,0.5,6.1c1.9,11.3,9,21.2,19.3,26.7l29.2,15.2l18.9-9.9V79.7H7.6V94.3z"/>
</g>
<path class="st0" d="M58.6,18.7L58.6,18.7c4.4-1,7.7-5,7.4-9.8c-0.3-4.8-4.4-8.8-9.3-8.8c-5.3-0.1-9.5,4.2-9.5,9.4
	c0,4.5,3.2,8.3,7.4,9.2h0c-1.7,6.4-4,12.1-6.6,16.8C38.8,51.7,25,56,11.4,33L11.2,33c2.7-1.5,4.5-4.6,3.8-8
	c-0.5-2.9-2.8-5.3-5.7-5.9c-4.9-1-9.2,2.7-9.2,7.4c0,4.2,3.4,7.5,7.5,7.5v35.7h67.9v-22C68.1,43.9,62.3,32.9,58.6,18.7z M105.5,18.9
	c-4.1,0-7.5,3.4-7.5,7.5c0,2.9,1.6,5.3,3.9,6.6l-0.3-0.1c-5.7,8.7-11.2,13.5-16.2,15.3v21.5h20.1V34c4.1,0,7.5-3.4,7.5-7.5
	C113.1,22.4,109.6,18.9,105.5,18.9z M103,33.5L103,33.5C103,33.5,103,33.5,103,33.5L103,33.5z"/>
</svg>
