<?xml version="1.0" encoding="utf-8"?>
<!-- Generator: Adobe Illustrator 25.0.1, SVG Export Plug-In . SVG Version: 6.00 Build 0)  -->
<svg version="1.1" xmlns="http://www.w3.org/2000/svg" xmlns:xlink="http://www.w3.org/1999/xlink" x="0px" y="0px"
	 viewBox="0 0 113.1 142.4" style="enable-background:new 0 0 113.1 142.4;" xml:space="preserve">
<style type="text/css">
	.st0{fill:#002D5B;}
	.st1{fill:url(#SVGID_1_);}
	.st2{fill:#004F9D;}
	.st3{fill:#FFD600;}
	.st4{fill:#FFFFFF;}
	.st5{fill:url(#SVGID_2_);}
	.st6{fill:url(#SVGID_3_);}
	.st7{fill:url(#SVGID_4_);}
	.st8{fill:url(#SVGID_5_);}
	.st9{fill:url(#SVGID_6_);}
	.st10{fill:url(#SVGID_7_);}
	.st11{fill:url(#SVGID_8_);}
	.st12{fill:url(#SVGID_9_);}
	.st13{fill:url(#SVGID_10_);}
	.st14{fill:url(#SVGID_11_);}
	.st15{fill:url(#SVGID_12_);}
	.st16{fill:#C7C8CA;}
	.st17{fill:url(#SVGID_13_);}
	.st18{fill:url(#SVGID_14_);}
	.st19{fill:url(#SVGID_15_);}
	.st20{fill:url(#SVGID_16_);}
	.st21{fill:url(#SVGID_17_);}
	.st22{fill:url(#SVGID_18_);}
	.st23{fill:url(#SVGID_19_);}
	.st24{fill:url(#SVGID_20_);}
	.st25{fill:url(#SVGID_21_);}
	.st26{fill:none;stroke:#FFD600;stroke-miterlimit:10;}
	.st27{display:none;}
</style>
<g id="Layer_1">
	<g>
		<radialGradient id="SVGID_1_" cx="86.7126" cy="60.8393" r="75.9479" gradientUnits="userSpaceOnUse">
			<stop  offset="0.1293" style="stop-color:#C0C2C4"/>
			<stop  offset="0.223" style="stop-color:#AAACAF"/>
			<stop  offset="0.4074" style="stop-color:#86878A"/>
			<stop  offset="0.5831" style="stop-color:#696B6D"/>
			<stop  offset="0.7453" style="stop-color:#535355"/>
			<stop  offset="0.8892" style="stop-color:#444345"/>
			<stop  offset="1" style="stop-color:#3D3D3E"/>
		</radialGradient>
		<path class="st1" d="M85.5,79.8v47.6l0.3-0.1c12.2-6.4,19.9-19,19.9-32.8V79.8H85.5z M7.5,94.4c0,2.1,0.2,4.1,0.5,6.1
			c1.9,11.3,9,21.3,19.4,26.7l29.2,15.2l18.9-9.9V79.8h-68V94.4z"/>
		<path class="st16" d="M58.6,18.7L58.6,18.7c4.4-1,7.7-5,7.4-9.8c-0.3-4.8-4.4-8.8-9.3-8.8c-5.3-0.1-9.6,4.2-9.6,9.4
			c0,4.5,3.2,8.3,7.4,9.2h0c-1.7,6.4-4,12.1-6.6,16.8C38.7,51.8,25,56,11.3,33l-0.2,0.1c2.7-1.5,4.5-4.6,3.8-8.1
			c-0.5-2.9-2.8-5.3-5.7-5.9c-4.9-1-9.2,2.7-9.2,7.4C0,30.6,3.4,34,7.5,34v35.7h68V47.7C68.1,44,62.3,32.9,58.6,18.7z M105.5,18.9
			c-4.1,0-7.5,3.4-7.5,7.5c0,2.9,1.6,5.3,3.9,6.6l-0.3-0.1c-5.7,8.7-11.2,13.6-16.2,15.3v21.5h20.1V34c4.1,0,7.5-3.4,7.5-7.5
			C113.1,22.4,109.6,18.9,105.5,18.9z M103.1,33.6L103.1,33.6C103,33.5,103.1,33.5,103.1,33.6L103.1,33.6z"/>
	</g>
</g>
<g id="nyt_x5F_exporter_x5F_info" class="st27">
</g>
</svg>
